<svg width="80" height="80" xmlns="http://www.w3.org/2000/svg">
 <defs>
  <filter id="svg_17_blur">
   <feGaussianBlur stdDeviation="0.3" in="SourceGraphic"/>
  </filter>
 </defs>
 <g>
  <title>Layer 1</title>
  <path d="m12.46696,10.7783c0,0.22026 0,0.22026 0,0.66079c0,0.66079 0,1.32159 0,1.76211c0,0.66079 -0.10869,1.29484 -0.22026,1.98238c-0.10585,0.65226 0,1.54185 0,2.42291c0,0.66079 0,1.54185 0,2.42291c0,0.88106 0,1.76211 0,2.42291c0,0.88106 0,1.54185 0,2.20264c0,0.66079 0,1.32159 0,2.20264c0,0.66079 0,1.54185 0,2.42291c0,1.10132 0.32957,1.96207 0.44053,2.86344c0.10765,0.87446 0.1093,1.7418 0.22026,2.64317c0.10765,0.87446 0,1.76212 0,2.42291c0,0.66079 0,1.54185 0,2.42291c0,0.88106 0,1.54185 0,2.20264c0,0.44053 0.22026,1.32159 0.22026,1.76212c0,0.88106 -0.10585,1.33012 0,1.98238c0.11157,0.68754 0.32896,1.07457 0.44053,1.76212c0.03528,0.21741 0,0.66079 0,0.88105c0,0.44053 0.1497,1.10701 0.22026,1.54185c0.11157,0.68754 0.22026,1.10132 0.22026,1.54185c0,0.44053 0,1.10132 0,1.54185c0,0.88106 0,1.32158 0,2.20264c0,0.88106 0.1093,1.74181 0.22026,2.64317c0.13456,1.09307 0.22026,1.76212 0.22026,2.64317c0,0.66079 0,1.54185 0,2.42291c0,1.10132 0,1.54185 0,1.98238c0,0 0,0.22026 0,0.44053c0,0 0,0.44053 0,0.66079c0,0.22027 0,0.6608 0,1.10133c0,0.22026 0.10106,0.373 0.22026,0.66079c0.08429,0.2035 0,0.44053 0,0.6608c0,0.44053 0,0.88106 0,1.32159c0,0 0,0.44052 0,0.88105c0,0.6608 0.22026,1.10133 0.22026,1.32159l0,0.44053l0,0l0,0.44053" id="svg_7" stroke="#000" fill="none"/>
  <path d="m30.30837,13.42147c0,0.22026 -0.03254,0.2078 -0.44053,1.32159c-0.47916,1.30808 -1.18079,2.91082 -1.76211,4.40529c-0.71421,1.83609 -1.6407,3.48552 -2.20264,5.06608c-0.53717,1.5109 -1.16597,2.83731 -1.76211,4.40529c-0.49507,1.30214 -1.18312,2.58739 -1.76211,3.52423c-0.51787,0.83794 -0.96588,1.62379 -1.54185,2.42291c-0.54641,0.75811 -1.15139,1.49447 -1.98238,2.4229c-0.94061,1.05091 -1.36471,2.1253 -2.20264,2.64317c-0.18737,0.1158 -0.27195,0.47406 -0.44053,0.88106c-0.11921,0.28779 -0.7679,0.84223 -0.88106,1.32158c-0.10121,0.42875 -0.32132,0.373 -0.44053,0.66079c-0.08429,0.2035 0,0.22026 0,0.44053c0,0.22026 0.52247,0.08482 1.32158,0.66079c0.75811,0.54641 1.44738,1.47125 2.42291,1.98238c0.61698,0.32327 1.10132,0.66079 1.54185,1.10132c0.44053,0.44053 0.93012,0.82026 1.76212,1.54185c0.70597,0.61229 1.16965,1.03942 1.76211,1.76212c0.5035,0.61417 1.02364,0.88994 1.76212,1.54185c0.59538,0.52559 0.74562,0.963 1.32158,1.76212c0.36427,0.50541 1.04053,1.15038 1.76212,1.98238c0.61229,0.70597 1.32158,1.76212 2.20264,2.64317c0.66079,0.66079 0.92661,1.28032 1.32158,1.76212c0.50349,0.61417 0.88106,1.10132 1.32159,1.54185c0.44053,0.44053 0.59307,0.92203 0.88106,1.32159c0.36428,0.50541 0.99888,0.9495 1.32159,1.32159c0.45637,0.5262 0.81808,1.14794 1.32158,1.76212c0.39497,0.4818 0.88106,1.10132 1.32159,1.32159l0,0.22026l0,0.22027l0,0" id="svg_8" stroke="#000" fill="none"/>
  <path d="m58.28193,12.32015c-0.88106,-0.22026 -2.90012,-0.72746 -5.72687,-0.22026c-3.15668,0.56639 -7.21959,2.17112 -9.91189,4.18502c-2.37293,1.77501 -3.41399,4.61806 -3.52423,7.04846c-0.07985,1.7603 0.16936,3.58836 1.54185,4.62555c1.73073,1.30792 5.56918,1.87753 10.35242,1.10132c4.12526,-0.66944 7.01257,-2.69887 8.37004,-4.40529c1.29364,-1.62617 1.76212,-3.52423 2.20264,-5.06608c0.44053,-1.54185 0.57742,-2.89879 0.88105,-4.18502c0.22632,-0.9587 0.65795,-1.50657 0.44053,-1.54185c-0.68754,-0.11157 -0.67964,2.41497 -1.32158,3.96476c-0.90785,2.19174 -1.94675,4.6377 -2.86344,7.26872c-0.84824,2.43459 -1.57195,5.0563 -2.20264,7.04846c-0.69408,2.19238 -0.92522,4.44796 -1.54185,6.60793c-0.51662,1.80964 -1.21944,3.94439 -1.54185,6.1674c-0.34919,2.40771 -0.77836,4.64683 -1.10132,5.94714c-0.3358,1.352 -0.98359,2.60751 -1.32159,3.74449c-0.32003,1.07657 -0.53214,2.15002 -0.88106,2.86344c-0.30603,0.62571 -0.13597,0.67756 -0.22026,0.88106c-0.11921,0.28779 -0.22026,0.66079 -0.22026,0.66079c0,0 -0.06451,0.28478 -0.22026,0.44053c-0.15575,0.15575 -0.22026,0.44053 -0.22026,0.44053c0,0.22026 0,0.44053 0,0.44053c-0.22026,0 -0.22026,0.22026 -0.22026,0.44053c0,0 -0.10106,0.15274 -0.22026,0.44053c-0.16858,0.40699 0,0.44053 0,0.66079c0,0.22026 -0.22026,0.22026 -0.22026,0.66079c0,0 -0.22026,0.44053 -0.22026,0.66079c0,0 0.3115,0.34929 0,0.66079c-0.15575,0.15575 -0.22026,0.22026 -0.22026,0.44053c0,0.22026 -0.22026,0.44053 -0.22026,0.66079c0,0 0,0.22027 0,0.22027c0,0.22026 0,0.44053 0,0.44053l0,0.22026" id="svg_10" stroke="#000" fill="none"/>
  <path transform="rotate(11.2249 62.5771 62.7607)" opacity="0.8" filter="url(#svg_17_blur)" d="m63.34801,61.21883c-0.22026,0 -0.373,-0.32132 -0.66079,-0.44053c-0.2035,-0.08429 -0.40171,-0.32737 -0.88106,-0.44053c-0.42875,-0.10121 -1.10132,0 -1.32159,0c-0.22026,0 -0.26123,-0.06772 -0.66079,0.22026c-0.2527,0.18214 -0.76526,0.69369 -0.88106,0.88105c-0.25894,0.41897 -0.44053,0.44053 -0.66079,0.66079c-0.22026,0.22026 -0.22026,0.44053 -0.22026,0.88106c0,0.22026 0,0.44053 0,0.66079c0,0.22026 0.09225,0.75306 0.44053,1.10132c0.34827,0.34827 0.84224,0.54763 1.32159,0.66079c0.42875,0.10121 0.66574,0.13953 1.32159,0.22027c0.90137,0.11096 1.32159,0.44053 1.54185,0.44053c0,0 0.13597,0.01677 0.22026,0.22026c0.11921,0.2878 0.373,0.32133 0.66079,0.44053c0.2035,0.08429 0.15274,0.10106 0.44053,0.22027c0.2035,0.08429 0.88105,0.22026 1.54185,0.44053c0,0 0.44053,0 0.66079,0c0.22027,0 0.22027,0 0.44053,0c0,0 -0.08429,-0.23704 0,-0.44053c0.11921,-0.2878 0.22027,-0.44053 0.22027,-0.6608c0,-0.22026 0,-0.22026 0,-0.44053c0,-0.22026 0,-0.22026 0,-0.44053c0,-0.22026 0,-0.22026 0,-0.44053c0,-0.22026 0,-0.44053 0,-0.66079c0,-0.22026 0,-0.44053 0,-0.88106c0,-0.22026 0.22026,-0.44053 0.22026,-0.66079c0,-0.22026 0,-0.66079 0,-1.10132c0,-0.22026 0,-0.44053 0,-0.88105c0,-0.22026 0,-0.66079 0,-0.88106c0,-0.44053 0,-0.88106 0,-1.10132c0,-0.22026 0,-0.22026 0,-0.44053c0,-0.22026 -0.22026,-0.22026 -0.22026,-0.22026c0,0 -0.22027,0 -0.44053,0c0,0 -0.22027,0 -0.44053,0c-0.44053,0 -0.44053,0 -0.88106,0c-0.22026,0 -0.44053,0.44053 -0.44053,0.44053c-0.22026,0 -0.22026,0.22026 -0.44053,0.44053c0,0 0,0 0,0.22026c0,0.22026 -0.22026,0.44053 -0.22026,0.66079c0,0.44053 0,0.44053 0,0.66079c0,0.22026 0,0.22026 0,0.44053c0,0.22026 0,0.22026 0,0.44053l0,0.22026l0,0" id="svg_17" stroke="#FFE2FF" fill="none"/>
 </g>
</svg>